HIERARCHY
ROOT Hips
{
	OFFSET	0.00	0.00	0.00
	CHANNELS 6 Xposition Yposition Zposition Zrotation Xrotation Yrotation
	JOINT Chest
	{
		OFFSET	0.000000	6.275751	0.000000
		CHANNELS 3 Zrotation Xrotation Yrotation
		JOINT Neck
		{
			OFFSET	0.000000	14.296947	0.000000
			CHANNELS 3 Zrotation Xrotation Yrotation
			JOINT Head
			{
				OFFSET	0.000000	2.637461	0.000000
				CHANNELS 3 Zrotation Xrotation Yrotation
				End Site
				{
					OFFSET	0.000000	4.499004	0.000000
				}
			}
		}
		JOINT LeftCollar
		{
			OFFSET	1.120000	11.362855	1.870000
			CHANNELS 3 Zrotation Xrotation Yrotation
			JOINT LeftUpArm
			{
				OFFSET	4.565688	2.019026	-1.821179
				CHANNELS 3 Zrotation Xrotation Yrotation
				JOINT LeftLowArm
				{
					OFFSET	0.219729	-10.348825	-0.061708
					CHANNELS 3 Zrotation Xrotation Yrotation
					JOINT LeftHand
					{
						OFFSET	0.087892	-10.352228	2.178217
						CHANNELS 3 Zrotation Xrotation Yrotation
						End Site
						{
							OFFSET	0.131837	-6.692379	1.711456
						}
					}
				}
			}
		}
		JOINT RightCollar
		{
			OFFSET	-1.120000	11.362855	1.870000
			CHANNELS 3 Zrotation Xrotation Yrotation
			JOINT RightUpArm
			{
				OFFSET	-4.708080	2.034554	-1.821179
				CHANNELS 3 Zrotation Xrotation Yrotation
				JOINT RightLowArm
				{
					OFFSET	-0.263676	-10.428555	-0.061708
					CHANNELS 3 Zrotation Xrotation Yrotation
					JOINT RightHand
					{
						OFFSET	0.000000	-10.255345	2.178217
						CHANNELS 3 Zrotation Xrotation Yrotation
						End Site
						{
							OFFSET	-0.140882	-6.671274	1.711456
						}
					}
				}
			}
		}
	}
	JOINT LeftUpLeg
	{
		OFFSET	3.910000	0.000000	0.000000
		CHANNELS 3 Zrotation Xrotation Yrotation
		JOINT LeftLowLeg
		{
			OFFSET	-0.441177	-17.569450	1.695613
			CHANNELS 3 Zrotation Xrotation Yrotation
			JOINT LeftFoot
			{
				OFFSET	-0.043946	-17.197315	-1.478076
				CHANNELS 3 Zrotation Xrotation Yrotation
				End Site
				{
					OFFSET	0.000000	-3.933155	5.233925
				}
			}
		}
	}
	JOINT RightUpLeg
	{
		OFFSET	-3.910000	0.000000	0.000000
		CHANNELS 3 Zrotation Xrotation Yrotation
		JOINT RightLowLeg
		{
			OFFSET	0.437741	-17.622387	1.695613
			CHANNELS 3 Zrotation Xrotation Yrotation
			JOINT RightFoot
			{
				OFFSET	0.000000	-17.140001	-1.478076
				CHANNELS 3 Zrotation Xrotation Yrotation
				End Site
				{
					OFFSET	0.000000	-4.038528	5.233925
				}
			}
		}
	}
}
MOTION
Frames: 13
Frame Time: 0.04166667
-9.407790	0.090785	-1.800076	-8.633590	-4.614418	121.322906	0.526082	-5.314140	-7.146886	3.373659	6.626754	-6.025733	-2.464271	1.268747	-0.667895	-29.524149	26.919464	15.622436	83.117104	-35.180183	43.395432	1.154704	4.127045	-0.508580	26.869007	3.778344	5.511901	28.550093	23.525759	-16.205374	-85.034653	-30.916008	-32.008266	8.815900	12.955372	-2.137289	-37.966465	5.004099	-7.582572	4.366534	-17.760443	33.213459	-0.650458	51.820671	5.927113	-5.880770	-37.335545	-3.185677	-6.270750	-37.874287	-73.800888	-1.141494	34.836246	-24.341312	-15.376600	-21.064386	0.947509	
-9.402163	0.030664	-1.789280	-8.551053	-4.539643	121.382111	0.447640	-5.051987	-7.024026	3.356098	6.588749	-6.096972	-2.439809	1.426021	-0.654513	-29.695480	26.855629	15.536353	81.573090	-36.046257	42.528492	1.010097	4.374084	-0.450719	26.921307	3.783385	5.521859	28.553078	23.573967	-15.949754	-83.367462	-31.393442	-34.795242	8.964205	13.799268	-2.548045	-38.417419	5.064215	-7.659274	4.435526	-17.843954	33.168331	-0.624084	52.262878	5.954478	-5.835604	-37.489616	-3.174893	-6.656463	-37.939716	-73.927971	-1.184503	35.437916	-24.531588	-15.248968	-21.178251	0.952692	
-9.393021	-0.014128	-1.775496	-8.489501	-4.507173	121.487213	0.465932	-4.755569	-6.918315	3.299901	6.452775	-6.128372	-2.394440	1.539267	-0.637558	-30.117966	26.973427	15.511214	80.224220	-37.008778	42.166821	0.910199	4.592120	-0.379124	26.540565	3.746909	5.449263	28.840132	23.874926	-15.980534	-81.844009	-31.721821	-36.466030	9.284079	13.442590	-2.373796	-38.922363	5.132229	-7.744608	4.499417	-17.982187	33.046577	-0.582117	52.661491	6.096519	-5.934114	-37.535355	-3.231259	-6.942016	-38.001827	-74.058907	-1.218426	35.871716	-24.685751	-15.252971	-21.304239	0.918403	
-9.374470	-0.054880	-1.764190	-8.390206	-4.465971	121.600479	0.463654	-4.413216	-6.789750	3.308775	6.293544	-6.238014	-2.408543	1.712564	-0.633969	-30.629440	27.301802	15.496596	79.142662	-37.952477	41.973057	0.621879	4.874378	-0.295537	26.519083	3.744875	5.445173	29.372786	24.240938	-16.017395	-80.468803	-31.932726	-36.878700	9.345889	12.681787	-1.976189	-38.855782	5.123245	-7.733414	4.606598	-18.026438	33.005398	-0.561607	53.022678	6.106124	-5.929474	-37.579460	-3.232551	-7.238136	-38.007374	-74.153862	-1.253583	36.361809	-24.827465	-15.161572	-21.414707	0.915099	
-9.354942	-0.095195	-1.757217	-8.352858	-4.413309	121.698013	0.426894	-4.097084	-6.772745	3.276240	6.045815	-6.297661	-2.292511	1.691599	-0.604241	-30.961235	27.444347	15.569398	77.792542	-38.911831	43.510841	-0.324719	5.389761	-0.403134	26.445927	3.737926	5.431175	29.647949	24.540047	-16.037281	-78.930710	-32.406513	-37.134056	9.384721	12.073618	-1.653063	-38.869137	5.125027	-7.735651	4.608043	-18.151287	32.849747	-0.508720	53.380241	6.310083	-5.999979	-37.618969	-3.273663	-7.572610	-37.988789	-74.458450	-1.274598	36.833763	-24.814600	-14.994427	-21.565517	0.923041	
-9.337429	-0.134748	-1.740662	-8.306439	-4.306952	121.817215	0.294863	-3.602602	-6.865620	3.320893	5.640210	-6.346223	-2.219407	1.747762	-0.582755	-31.433392	27.766277	15.905824	76.726120	-40.120228	43.260067	-0.673287	5.648479	-0.245976	26.207676	3.715403	5.385608	30.120953	24.847818	-16.199169	-77.595673	-33.178967	-37.397545	9.508842	11.273038	-1.242799	-39.265244	5.178847	-7.802230	4.594669	-18.314077	32.681286	-0.446566	53.822128	6.541860	-5.996312	-37.560780	-3.266613	-7.847391	-37.923580	-74.759880	-1.286913	37.158691	-24.779877	-15.042057	-21.771345	0.856338	
-9.309340	-0.180289	-1.735922	-8.243509	-4.242238	121.830193	0.236732	-3.256595	-6.841349	3.352023	5.319478	-6.415817	-2.115567	1.856133	-0.551426	-31.883083	28.138926	16.082697	75.602562	-41.095860	42.993896	-1.049950	5.908599	-0.073433	26.071350	3.702591	5.359448	30.555025	25.166420	-16.397078	-76.462288	-34.219048	-37.315197	9.681147	11.050966	-1.129617	-39.793007	5.251291	-7.890360	4.683199	-18.359957	32.806831	-0.409986	54.220116	6.613338	-5.806357	-37.653427	-3.173117	-8.100193	-37.854866	-75.041840	-1.298605	37.600117	-24.680683	-14.920205	-21.959520	0.843024	
-9.277039	-0.227742	-1.743527	-8.099824	-4.078374	121.753563	0.213929	-2.833758	-6.815854	3.288883	5.002386	-6.545068	-2.108610	2.122886	-0.539692	-32.365776	28.414402	16.247252	74.416550	-41.932724	42.597160	-1.476611	6.177045	0.103248	25.930643	3.689484	5.332478	31.036158	25.627205	-16.634092	-75.587463	-35.376926	-38.121986	9.933391	10.969793	-1.094127	-40.516891	5.351950	-8.010167	4.731598	-18.221197	33.008324	-0.379457	54.575279	6.641333	-5.581220	-37.793880	-3.064254	-8.370994	-37.658901	-75.330994	-1.297997	38.099739	-24.433178	-15.004622	-22.176579	0.762601	
-9.239102	-0.276263	-1.750136	-8.006480	-3.924914	121.700623	0.134602	-2.644711	-6.867151	3.242406	4.876180	-6.733973	-2.067667	2.246206	-0.524706	-32.549446	28.474739	16.229113	72.747589	-42.488693	39.673775	-1.332908	6.140302	0.375383	25.642506	3.662765	5.277072	31.252811	25.795027	-16.594440	-73.679604	-35.917435	-36.879761	9.633110	9.338194	-0.309575	-40.496002	5.349024	-8.006752	4.799582	-18.113737	33.297207	-0.352906	54.940331	6.650449	-5.435853	-37.892773	-2.993978	-8.725594	-37.467209	-75.809128	-1.294612	38.652012	-24.122911	-15.038820	-22.393703	0.696594	
-9.167078	-0.337405	-1.790311	-7.207980	-3.199926	121.158485	-0.014667	-1.454033	-6.403986	3.179615	4.591161	-6.832799	-2.059496	2.394606	-0.517238	-32.936199	28.733974	16.449907	71.549004	-43.289917	41.118401	-2.258454	6.673076	0.527214	25.604740	3.659285	5.269813	31.591982	26.033899	-16.754036	-72.370544	-36.919666	-35.789719	9.492422	8.418955	0.220860	-40.107304	5.294817	-7.942567	4.885709	-16.831244	34.142246	-0.342660	55.228416	6.593606	-5.496184	-38.084087	-3.041711	-8.873368	-36.529217	-75.431030	-1.309448	39.454151	-23.909395	-14.903792	-22.629129	0.676759	
-9.147306	-0.385582	-1.789874	-7.074194	-3.102424	121.168633	0.112429	-1.228711	-6.623638	2.983834	4.341710	-6.746810	-2.010798	2.352912	-0.506477	-33.267349	28.717131	16.520323	69.962555	-43.834122	40.090828	-2.540694	6.848682	0.700812	25.572321	3.656321	5.263615	31.750866	26.362015	-16.792627	-70.854668	-37.789154	-36.257011	8.963076	7.673158	0.651314	-40.029713	5.284064	-7.929687	5.019852	-16.766861	34.394703	-0.320587	55.627903	6.559613	-5.353935	-38.169643	-2.971415	-9.212388	-36.448235	-75.629242	-1.343101	40.055534	-23.928099	-14.730896	-22.733778	0.702592	
-9.143098	-0.431595	-1.783006	-6.969125	-3.038910	121.054451	0.202535	-1.031214	-6.571146	2.868648	4.085605	-6.793564	-1.945549	2.169502	-0.496322	-33.428406	28.743021	16.431826	68.437737	-44.294971	38.682148	-2.935321	7.082090	0.941584	25.559223	3.655092	5.261062	31.729122	26.597187	-16.813435	-68.301865	-38.397385	-34.983685	7.552805	5.538342	1.679591	-38.681931	5.099772	-7.704056	5.194472	-16.793825	34.734856	-0.276599	56.064400	6.615542	-5.229893	-38.210464	-2.907296	-9.287422	-36.494102	-75.434631	-1.379510	40.400261	-24.110113	-14.645734	-22.805172	0.710539	
-9.146905	-0.477258	-1.767003	-6.765723	-2.959796	121.131111	0.352033	-0.686154	-6.664273	2.731388	3.796066	-6.998027	-1.761850	1.794113	-0.461088	-33.497555	28.711681	16.274446	66.852516	-44.708141	37.165066	-3.271873	7.276164	1.159971	25.341047	3.635127	5.219023	31.776516	26.746218	-16.828432	-65.662666	-39.189865	-33.797710	5.638425	3.618891	2.518697	-36.989544	4.876009	-7.414864	5.346626	-16.776312	34.921680	-0.236189	56.480564	6.657969	-4.924032	-38.293385	-2.747425	-9.243424	-36.389851	-75.307755	-1.402947	40.505688	-24.281679	-14.679687	-23.046640	0.639727	
